<mxfile host="app.diagrams.net" agent="Mozilla/5.0 (Windows NT 10.0; Win64; x64) AppleWebKit/537.36 (KHTML, like Gecko) Chrome/129.0.0.0 Safari/537.36" version="24.7.17">
  <diagram name="Page-1" id="DVzVsWMAlOI4Q_JtNoQC">
    <mxGraphModel dx="1560" dy="746" grid="1" gridSize="10" guides="1" tooltips="1" connect="1" arrows="1" fold="1" page="1" pageScale="1" pageWidth="850" pageHeight="1100" math="0" shadow="0">
      <root>
        <mxCell id="0" />
        <mxCell id="1" parent="0" />
        <mxCell id="1v1phzoy_iiigH24OFzI-1" value="Customers" style="shape=table;startSize=30;container=1;collapsible=0;childLayout=tableLayout;strokeColor=#006EAF;fontSize=16;fillColor=#1ba1e2;fontColor=#ffffff;" parent="1" vertex="1">
          <mxGeometry x="50" y="360" width="570" height="150" as="geometry" />
        </mxCell>
        <mxCell id="1v1phzoy_iiigH24OFzI-2" value="" style="shape=tableRow;horizontal=0;startSize=0;swimlaneHead=0;swimlaneBody=0;strokeColor=inherit;top=0;left=0;bottom=0;right=0;collapsible=0;dropTarget=0;fillColor=none;points=[[0,0.5],[1,0.5]];portConstraint=eastwest;fontSize=16;" parent="1v1phzoy_iiigH24OFzI-1" vertex="1">
          <mxGeometry y="30" width="570" height="40" as="geometry" />
        </mxCell>
        <mxCell id="MIiSA8-IzTzcgjg1cewq-31" value="Customer_ID(pk)" style="shape=partialRectangle;html=1;whiteSpace=wrap;connectable=0;strokeColor=inherit;overflow=hidden;fillColor=none;top=0;left=0;bottom=0;right=0;pointerEvents=1;fontSize=16;" vertex="1" parent="1v1phzoy_iiigH24OFzI-2">
          <mxGeometry width="130" height="40" as="geometry">
            <mxRectangle width="130" height="40" as="alternateBounds" />
          </mxGeometry>
        </mxCell>
        <mxCell id="1v1phzoy_iiigH24OFzI-3" value="First_Name" style="shape=partialRectangle;html=1;whiteSpace=wrap;connectable=0;strokeColor=inherit;overflow=hidden;fillColor=none;top=0;left=0;bottom=0;right=0;pointerEvents=1;fontSize=16;" parent="1v1phzoy_iiigH24OFzI-2" vertex="1">
          <mxGeometry x="130" width="103" height="40" as="geometry">
            <mxRectangle width="103" height="40" as="alternateBounds" />
          </mxGeometry>
        </mxCell>
        <mxCell id="1v1phzoy_iiigH24OFzI-4" value="Last_Name" style="shape=partialRectangle;html=1;whiteSpace=wrap;connectable=0;strokeColor=inherit;overflow=hidden;fillColor=none;top=0;left=0;bottom=0;right=0;pointerEvents=1;fontSize=16;" parent="1v1phzoy_iiigH24OFzI-2" vertex="1">
          <mxGeometry x="233" width="93" height="40" as="geometry">
            <mxRectangle width="93" height="40" as="alternateBounds" />
          </mxGeometry>
        </mxCell>
        <mxCell id="1v1phzoy_iiigH24OFzI-5" value="Phone" style="shape=partialRectangle;html=1;whiteSpace=wrap;connectable=0;strokeColor=inherit;overflow=hidden;fillColor=none;top=0;left=0;bottom=0;right=0;pointerEvents=1;fontSize=16;" parent="1v1phzoy_iiigH24OFzI-2" vertex="1">
          <mxGeometry x="326" width="116" height="40" as="geometry">
            <mxRectangle width="116" height="40" as="alternateBounds" />
          </mxGeometry>
        </mxCell>
        <mxCell id="MIiSA8-IzTzcgjg1cewq-1" value="Email" style="shape=partialRectangle;html=1;whiteSpace=wrap;connectable=0;strokeColor=inherit;overflow=hidden;fillColor=none;top=0;left=0;bottom=0;right=0;pointerEvents=1;fontSize=16;" vertex="1" parent="1v1phzoy_iiigH24OFzI-2">
          <mxGeometry x="442" width="128" height="40" as="geometry">
            <mxRectangle width="128" height="40" as="alternateBounds" />
          </mxGeometry>
        </mxCell>
        <mxCell id="1v1phzoy_iiigH24OFzI-6" value="" style="shape=tableRow;horizontal=0;startSize=0;swimlaneHead=0;swimlaneBody=0;strokeColor=inherit;top=0;left=0;bottom=0;right=0;collapsible=0;dropTarget=0;fillColor=none;points=[[0,0.5],[1,0.5]];portConstraint=eastwest;fontSize=16;" parent="1v1phzoy_iiigH24OFzI-1" vertex="1">
          <mxGeometry y="70" width="570" height="40" as="geometry" />
        </mxCell>
        <mxCell id="MIiSA8-IzTzcgjg1cewq-32" value="INT" style="shape=partialRectangle;html=1;whiteSpace=wrap;connectable=0;strokeColor=inherit;overflow=hidden;fillColor=none;top=0;left=0;bottom=0;right=0;pointerEvents=1;fontSize=16;" vertex="1" parent="1v1phzoy_iiigH24OFzI-6">
          <mxGeometry width="130" height="40" as="geometry">
            <mxRectangle width="130" height="40" as="alternateBounds" />
          </mxGeometry>
        </mxCell>
        <mxCell id="1v1phzoy_iiigH24OFzI-7" value="VARCHAR" style="shape=partialRectangle;html=1;whiteSpace=wrap;connectable=0;strokeColor=inherit;overflow=hidden;fillColor=none;top=0;left=0;bottom=0;right=0;pointerEvents=1;fontSize=16;" parent="1v1phzoy_iiigH24OFzI-6" vertex="1">
          <mxGeometry x="130" width="103" height="40" as="geometry">
            <mxRectangle width="103" height="40" as="alternateBounds" />
          </mxGeometry>
        </mxCell>
        <mxCell id="1v1phzoy_iiigH24OFzI-8" value="VARCHAR" style="shape=partialRectangle;html=1;whiteSpace=wrap;connectable=0;strokeColor=inherit;overflow=hidden;fillColor=none;top=0;left=0;bottom=0;right=0;pointerEvents=1;fontSize=16;" parent="1v1phzoy_iiigH24OFzI-6" vertex="1">
          <mxGeometry x="233" width="93" height="40" as="geometry">
            <mxRectangle width="93" height="40" as="alternateBounds" />
          </mxGeometry>
        </mxCell>
        <mxCell id="1v1phzoy_iiigH24OFzI-9" value="VARCHAR" style="shape=partialRectangle;html=1;whiteSpace=wrap;connectable=0;strokeColor=inherit;overflow=hidden;fillColor=none;top=0;left=0;bottom=0;right=0;pointerEvents=1;fontSize=16;" parent="1v1phzoy_iiigH24OFzI-6" vertex="1">
          <mxGeometry x="326" width="116" height="40" as="geometry">
            <mxRectangle width="116" height="40" as="alternateBounds" />
          </mxGeometry>
        </mxCell>
        <mxCell id="MIiSA8-IzTzcgjg1cewq-2" value="VARCHAR" style="shape=partialRectangle;html=1;whiteSpace=wrap;connectable=0;strokeColor=inherit;overflow=hidden;fillColor=none;top=0;left=0;bottom=0;right=0;pointerEvents=1;fontSize=16;" vertex="1" parent="1v1phzoy_iiigH24OFzI-6">
          <mxGeometry x="442" width="128" height="40" as="geometry">
            <mxRectangle width="128" height="40" as="alternateBounds" />
          </mxGeometry>
        </mxCell>
        <mxCell id="1v1phzoy_iiigH24OFzI-10" value="" style="shape=tableRow;horizontal=0;startSize=0;swimlaneHead=0;swimlaneBody=0;strokeColor=inherit;top=0;left=0;bottom=0;right=0;collapsible=0;dropTarget=0;fillColor=none;points=[[0,0.5],[1,0.5]];portConstraint=eastwest;fontSize=16;" parent="1v1phzoy_iiigH24OFzI-1" vertex="1">
          <mxGeometry y="110" width="570" height="40" as="geometry" />
        </mxCell>
        <mxCell id="MIiSA8-IzTzcgjg1cewq-33" style="shape=partialRectangle;html=1;whiteSpace=wrap;connectable=0;strokeColor=inherit;overflow=hidden;fillColor=none;top=0;left=0;bottom=0;right=0;pointerEvents=1;fontSize=16;" vertex="1" parent="1v1phzoy_iiigH24OFzI-10">
          <mxGeometry width="130" height="40" as="geometry">
            <mxRectangle width="130" height="40" as="alternateBounds" />
          </mxGeometry>
        </mxCell>
        <mxCell id="1v1phzoy_iiigH24OFzI-11" value="" style="shape=partialRectangle;html=1;whiteSpace=wrap;connectable=0;strokeColor=inherit;overflow=hidden;fillColor=none;top=0;left=0;bottom=0;right=0;pointerEvents=1;fontSize=16;" parent="1v1phzoy_iiigH24OFzI-10" vertex="1">
          <mxGeometry x="130" width="103" height="40" as="geometry">
            <mxRectangle width="103" height="40" as="alternateBounds" />
          </mxGeometry>
        </mxCell>
        <mxCell id="1v1phzoy_iiigH24OFzI-12" value="" style="shape=partialRectangle;html=1;whiteSpace=wrap;connectable=0;strokeColor=inherit;overflow=hidden;fillColor=none;top=0;left=0;bottom=0;right=0;pointerEvents=1;fontSize=16;" parent="1v1phzoy_iiigH24OFzI-10" vertex="1">
          <mxGeometry x="233" width="93" height="40" as="geometry">
            <mxRectangle width="93" height="40" as="alternateBounds" />
          </mxGeometry>
        </mxCell>
        <mxCell id="1v1phzoy_iiigH24OFzI-13" value="" style="shape=partialRectangle;html=1;whiteSpace=wrap;connectable=0;strokeColor=inherit;overflow=hidden;fillColor=none;top=0;left=0;bottom=0;right=0;pointerEvents=1;fontSize=16;" parent="1v1phzoy_iiigH24OFzI-10" vertex="1">
          <mxGeometry x="326" width="116" height="40" as="geometry">
            <mxRectangle width="116" height="40" as="alternateBounds" />
          </mxGeometry>
        </mxCell>
        <mxCell id="MIiSA8-IzTzcgjg1cewq-3" style="shape=partialRectangle;html=1;whiteSpace=wrap;connectable=0;strokeColor=inherit;overflow=hidden;fillColor=none;top=0;left=0;bottom=0;right=0;pointerEvents=1;fontSize=16;" vertex="1" parent="1v1phzoy_iiigH24OFzI-10">
          <mxGeometry x="442" width="128" height="40" as="geometry">
            <mxRectangle width="128" height="40" as="alternateBounds" />
          </mxGeometry>
        </mxCell>
        <mxCell id="1v1phzoy_iiigH24OFzI-40" value="Vendor" style="shape=table;startSize=30;container=1;collapsible=0;childLayout=tableLayout;strokeColor=#2D7600;fontSize=16;fillColor=#60a917;fontColor=#ffffff;" parent="1" vertex="1">
          <mxGeometry x="860" y="360" width="818" height="200" as="geometry" />
        </mxCell>
        <mxCell id="1v1phzoy_iiigH24OFzI-41" value="" style="shape=tableRow;horizontal=0;startSize=0;swimlaneHead=0;swimlaneBody=0;strokeColor=inherit;top=0;left=0;bottom=0;right=0;collapsible=0;dropTarget=0;fillColor=none;points=[[0,0.5],[1,0.5]];portConstraint=eastwest;fontSize=16;" parent="1v1phzoy_iiigH24OFzI-40" vertex="1">
          <mxGeometry y="30" width="818" height="57" as="geometry" />
        </mxCell>
        <mxCell id="1v1phzoy_iiigH24OFzI-42" value="Vendor_ID(pk)" style="shape=partialRectangle;html=1;whiteSpace=wrap;connectable=0;strokeColor=inherit;overflow=hidden;fillColor=none;top=0;left=0;bottom=0;right=0;pointerEvents=1;fontSize=16;" parent="1v1phzoy_iiigH24OFzI-41" vertex="1">
          <mxGeometry width="164" height="57" as="geometry">
            <mxRectangle width="164" height="57" as="alternateBounds" />
          </mxGeometry>
        </mxCell>
        <mxCell id="1v1phzoy_iiigH24OFzI-43" value="Vendor_Name" style="shape=partialRectangle;html=1;whiteSpace=wrap;connectable=0;strokeColor=inherit;overflow=hidden;fillColor=none;top=0;left=0;bottom=0;right=0;pointerEvents=1;fontSize=16;" parent="1v1phzoy_iiigH24OFzI-41" vertex="1">
          <mxGeometry x="164" width="162" height="57" as="geometry">
            <mxRectangle width="162" height="57" as="alternateBounds" />
          </mxGeometry>
        </mxCell>
        <mxCell id="1v1phzoy_iiigH24OFzI-44" value="Phone" style="shape=partialRectangle;html=1;whiteSpace=wrap;connectable=0;strokeColor=inherit;overflow=hidden;fillColor=none;top=0;left=0;bottom=0;right=0;pointerEvents=1;fontSize=16;" parent="1v1phzoy_iiigH24OFzI-41" vertex="1">
          <mxGeometry x="326" width="164" height="57" as="geometry">
            <mxRectangle width="164" height="57" as="alternateBounds" />
          </mxGeometry>
        </mxCell>
        <mxCell id="MIiSA8-IzTzcgjg1cewq-13" value="Email" style="shape=partialRectangle;html=1;whiteSpace=wrap;connectable=0;strokeColor=inherit;overflow=hidden;fillColor=none;top=0;left=0;bottom=0;right=0;pointerEvents=1;fontSize=16;" vertex="1" parent="1v1phzoy_iiigH24OFzI-41">
          <mxGeometry x="490" width="164" height="57" as="geometry">
            <mxRectangle width="164" height="57" as="alternateBounds" />
          </mxGeometry>
        </mxCell>
        <mxCell id="MIiSA8-IzTzcgjg1cewq-16" value="Address" style="shape=partialRectangle;html=1;whiteSpace=wrap;connectable=0;strokeColor=inherit;overflow=hidden;fillColor=none;top=0;left=0;bottom=0;right=0;pointerEvents=1;fontSize=16;" vertex="1" parent="1v1phzoy_iiigH24OFzI-41">
          <mxGeometry x="654" width="164" height="57" as="geometry">
            <mxRectangle width="164" height="57" as="alternateBounds" />
          </mxGeometry>
        </mxCell>
        <mxCell id="1v1phzoy_iiigH24OFzI-45" value="" style="shape=tableRow;horizontal=0;startSize=0;swimlaneHead=0;swimlaneBody=0;strokeColor=inherit;top=0;left=0;bottom=0;right=0;collapsible=0;dropTarget=0;fillColor=none;points=[[0,0.5],[1,0.5]];portConstraint=eastwest;fontSize=16;" parent="1v1phzoy_iiigH24OFzI-40" vertex="1">
          <mxGeometry y="87" width="818" height="56" as="geometry" />
        </mxCell>
        <mxCell id="1v1phzoy_iiigH24OFzI-46" value="INT" style="shape=partialRectangle;html=1;whiteSpace=wrap;connectable=0;strokeColor=inherit;overflow=hidden;fillColor=none;top=0;left=0;bottom=0;right=0;pointerEvents=1;fontSize=16;" parent="1v1phzoy_iiigH24OFzI-45" vertex="1">
          <mxGeometry width="164" height="56" as="geometry">
            <mxRectangle width="164" height="56" as="alternateBounds" />
          </mxGeometry>
        </mxCell>
        <mxCell id="1v1phzoy_iiigH24OFzI-47" value="VARCHAR" style="shape=partialRectangle;html=1;whiteSpace=wrap;connectable=0;strokeColor=inherit;overflow=hidden;fillColor=none;top=0;left=0;bottom=0;right=0;pointerEvents=1;fontSize=16;" parent="1v1phzoy_iiigH24OFzI-45" vertex="1">
          <mxGeometry x="164" width="162" height="56" as="geometry">
            <mxRectangle width="162" height="56" as="alternateBounds" />
          </mxGeometry>
        </mxCell>
        <mxCell id="1v1phzoy_iiigH24OFzI-48" value="VARCHAR" style="shape=partialRectangle;html=1;whiteSpace=wrap;connectable=0;strokeColor=inherit;overflow=hidden;fillColor=none;top=0;left=0;bottom=0;right=0;pointerEvents=1;fontSize=16;" parent="1v1phzoy_iiigH24OFzI-45" vertex="1">
          <mxGeometry x="326" width="164" height="56" as="geometry">
            <mxRectangle width="164" height="56" as="alternateBounds" />
          </mxGeometry>
        </mxCell>
        <mxCell id="MIiSA8-IzTzcgjg1cewq-14" value="&#xa;&lt;span style=&quot;color: rgb(0, 0, 0); font-family: Helvetica; font-size: 16px; font-style: normal; font-variant-ligatures: normal; font-variant-caps: normal; font-weight: 400; letter-spacing: normal; orphans: 2; text-align: center; text-indent: 0px; text-transform: none; widows: 2; word-spacing: 0px; -webkit-text-stroke-width: 0px; white-space: normal; background-color: rgb(251, 251, 251); text-decoration-thickness: initial; text-decoration-style: initial; text-decoration-color: initial; display: inline !important; float: none;&quot;&gt;VARCHAR&lt;/span&gt;&#xa;&#xa;" style="shape=partialRectangle;html=1;whiteSpace=wrap;connectable=0;strokeColor=inherit;overflow=hidden;fillColor=none;top=0;left=0;bottom=0;right=0;pointerEvents=1;fontSize=16;" vertex="1" parent="1v1phzoy_iiigH24OFzI-45">
          <mxGeometry x="490" width="164" height="56" as="geometry">
            <mxRectangle width="164" height="56" as="alternateBounds" />
          </mxGeometry>
        </mxCell>
        <mxCell id="MIiSA8-IzTzcgjg1cewq-17" value="&#xa;&lt;span style=&quot;color: rgb(0, 0, 0); font-family: Helvetica; font-size: 16px; font-style: normal; font-variant-ligatures: normal; font-variant-caps: normal; font-weight: 400; letter-spacing: normal; orphans: 2; text-align: center; text-indent: 0px; text-transform: none; widows: 2; word-spacing: 0px; -webkit-text-stroke-width: 0px; white-space: normal; background-color: rgb(251, 251, 251); text-decoration-thickness: initial; text-decoration-style: initial; text-decoration-color: initial; display: inline !important; float: none;&quot;&gt;VARCHAR&lt;/span&gt;&#xa;&#xa;" style="shape=partialRectangle;html=1;whiteSpace=wrap;connectable=0;strokeColor=inherit;overflow=hidden;fillColor=none;top=0;left=0;bottom=0;right=0;pointerEvents=1;fontSize=16;" vertex="1" parent="1v1phzoy_iiigH24OFzI-45">
          <mxGeometry x="654" width="164" height="56" as="geometry">
            <mxRectangle width="164" height="56" as="alternateBounds" />
          </mxGeometry>
        </mxCell>
        <mxCell id="1v1phzoy_iiigH24OFzI-49" value="" style="shape=tableRow;horizontal=0;startSize=0;swimlaneHead=0;swimlaneBody=0;strokeColor=inherit;top=0;left=0;bottom=0;right=0;collapsible=0;dropTarget=0;fillColor=none;points=[[0,0.5],[1,0.5]];portConstraint=eastwest;fontSize=16;" parent="1v1phzoy_iiigH24OFzI-40" vertex="1">
          <mxGeometry y="143" width="818" height="57" as="geometry" />
        </mxCell>
        <mxCell id="1v1phzoy_iiigH24OFzI-50" value="" style="shape=partialRectangle;html=1;whiteSpace=wrap;connectable=0;strokeColor=inherit;overflow=hidden;fillColor=none;top=0;left=0;bottom=0;right=0;pointerEvents=1;fontSize=16;" parent="1v1phzoy_iiigH24OFzI-49" vertex="1">
          <mxGeometry width="164" height="57" as="geometry">
            <mxRectangle width="164" height="57" as="alternateBounds" />
          </mxGeometry>
        </mxCell>
        <mxCell id="1v1phzoy_iiigH24OFzI-51" value="" style="shape=partialRectangle;html=1;whiteSpace=wrap;connectable=0;strokeColor=inherit;overflow=hidden;fillColor=none;top=0;left=0;bottom=0;right=0;pointerEvents=1;fontSize=16;" parent="1v1phzoy_iiigH24OFzI-49" vertex="1">
          <mxGeometry x="164" width="162" height="57" as="geometry">
            <mxRectangle width="162" height="57" as="alternateBounds" />
          </mxGeometry>
        </mxCell>
        <mxCell id="1v1phzoy_iiigH24OFzI-52" value="" style="shape=partialRectangle;html=1;whiteSpace=wrap;connectable=0;strokeColor=inherit;overflow=hidden;fillColor=none;top=0;left=0;bottom=0;right=0;pointerEvents=1;fontSize=16;" parent="1v1phzoy_iiigH24OFzI-49" vertex="1">
          <mxGeometry x="326" width="164" height="57" as="geometry">
            <mxRectangle width="164" height="57" as="alternateBounds" />
          </mxGeometry>
        </mxCell>
        <mxCell id="MIiSA8-IzTzcgjg1cewq-15" style="shape=partialRectangle;html=1;whiteSpace=wrap;connectable=0;strokeColor=inherit;overflow=hidden;fillColor=none;top=0;left=0;bottom=0;right=0;pointerEvents=1;fontSize=16;" vertex="1" parent="1v1phzoy_iiigH24OFzI-49">
          <mxGeometry x="490" width="164" height="57" as="geometry">
            <mxRectangle width="164" height="57" as="alternateBounds" />
          </mxGeometry>
        </mxCell>
        <mxCell id="MIiSA8-IzTzcgjg1cewq-18" style="shape=partialRectangle;html=1;whiteSpace=wrap;connectable=0;strokeColor=inherit;overflow=hidden;fillColor=none;top=0;left=0;bottom=0;right=0;pointerEvents=1;fontSize=16;" vertex="1" parent="1v1phzoy_iiigH24OFzI-49">
          <mxGeometry x="654" width="164" height="57" as="geometry">
            <mxRectangle width="164" height="57" as="alternateBounds" />
          </mxGeometry>
        </mxCell>
        <mxCell id="1v1phzoy_iiigH24OFzI-53" value="Products" style="shape=table;startSize=30;container=1;collapsible=0;childLayout=tableLayout;strokeColor=#6F0000;fontSize=16;fillColor=#a20025;fontColor=#ffffff;" parent="1" vertex="1">
          <mxGeometry x="50" y="810" width="520" height="150" as="geometry" />
        </mxCell>
        <mxCell id="1v1phzoy_iiigH24OFzI-54" value="" style="shape=tableRow;horizontal=0;startSize=0;swimlaneHead=0;swimlaneBody=0;strokeColor=inherit;top=0;left=0;bottom=0;right=0;collapsible=0;dropTarget=0;fillColor=none;points=[[0,0.5],[1,0.5]];portConstraint=eastwest;fontSize=16;" parent="1v1phzoy_iiigH24OFzI-53" vertex="1">
          <mxGeometry y="30" width="520" height="40" as="geometry" />
        </mxCell>
        <mxCell id="1v1phzoy_iiigH24OFzI-55" value="Product_ID(pk)" style="shape=partialRectangle;html=1;whiteSpace=wrap;connectable=0;strokeColor=inherit;overflow=hidden;fillColor=none;top=0;left=0;bottom=0;right=0;pointerEvents=1;fontSize=16;" parent="1v1phzoy_iiigH24OFzI-54" vertex="1">
          <mxGeometry width="124" height="40" as="geometry">
            <mxRectangle width="124" height="40" as="alternateBounds" />
          </mxGeometry>
        </mxCell>
        <mxCell id="1v1phzoy_iiigH24OFzI-56" value="Product_Name" style="shape=partialRectangle;html=1;whiteSpace=wrap;connectable=0;strokeColor=inherit;overflow=hidden;fillColor=none;top=0;left=0;bottom=0;right=0;pointerEvents=1;fontSize=16;" parent="1v1phzoy_iiigH24OFzI-54" vertex="1">
          <mxGeometry x="124" width="148" height="40" as="geometry">
            <mxRectangle width="148" height="40" as="alternateBounds" />
          </mxGeometry>
        </mxCell>
        <mxCell id="1v1phzoy_iiigH24OFzI-57" value="Price" style="shape=partialRectangle;html=1;whiteSpace=wrap;connectable=0;strokeColor=inherit;overflow=hidden;fillColor=none;top=0;left=0;bottom=0;right=0;pointerEvents=1;fontSize=16;" parent="1v1phzoy_iiigH24OFzI-54" vertex="1">
          <mxGeometry x="272" width="112" height="40" as="geometry">
            <mxRectangle width="112" height="40" as="alternateBounds" />
          </mxGeometry>
        </mxCell>
        <mxCell id="1v1phzoy_iiigH24OFzI-165" value="Total_Stock" style="shape=partialRectangle;html=1;whiteSpace=wrap;connectable=0;strokeColor=inherit;overflow=hidden;fillColor=none;top=0;left=0;bottom=0;right=0;pointerEvents=1;fontSize=16;" parent="1v1phzoy_iiigH24OFzI-54" vertex="1">
          <mxGeometry x="384" width="136" height="40" as="geometry">
            <mxRectangle width="136" height="40" as="alternateBounds" />
          </mxGeometry>
        </mxCell>
        <mxCell id="1v1phzoy_iiigH24OFzI-58" value="" style="shape=tableRow;horizontal=0;startSize=0;swimlaneHead=0;swimlaneBody=0;strokeColor=inherit;top=0;left=0;bottom=0;right=0;collapsible=0;dropTarget=0;fillColor=none;points=[[0,0.5],[1,0.5]];portConstraint=eastwest;fontSize=16;" parent="1v1phzoy_iiigH24OFzI-53" vertex="1">
          <mxGeometry y="70" width="520" height="40" as="geometry" />
        </mxCell>
        <mxCell id="1v1phzoy_iiigH24OFzI-59" value="INT" style="shape=partialRectangle;html=1;whiteSpace=wrap;connectable=0;strokeColor=inherit;overflow=hidden;fillColor=none;top=0;left=0;bottom=0;right=0;pointerEvents=1;fontSize=16;" parent="1v1phzoy_iiigH24OFzI-58" vertex="1">
          <mxGeometry width="124" height="40" as="geometry">
            <mxRectangle width="124" height="40" as="alternateBounds" />
          </mxGeometry>
        </mxCell>
        <mxCell id="1v1phzoy_iiigH24OFzI-60" value="VARCHAR" style="shape=partialRectangle;html=1;whiteSpace=wrap;connectable=0;strokeColor=inherit;overflow=hidden;fillColor=none;top=0;left=0;bottom=0;right=0;pointerEvents=1;fontSize=16;" parent="1v1phzoy_iiigH24OFzI-58" vertex="1">
          <mxGeometry x="124" width="148" height="40" as="geometry">
            <mxRectangle width="148" height="40" as="alternateBounds" />
          </mxGeometry>
        </mxCell>
        <mxCell id="1v1phzoy_iiigH24OFzI-61" value="DECI" style="shape=partialRectangle;html=1;whiteSpace=wrap;connectable=0;strokeColor=inherit;overflow=hidden;fillColor=none;top=0;left=0;bottom=0;right=0;pointerEvents=1;fontSize=16;" parent="1v1phzoy_iiigH24OFzI-58" vertex="1">
          <mxGeometry x="272" width="112" height="40" as="geometry">
            <mxRectangle width="112" height="40" as="alternateBounds" />
          </mxGeometry>
        </mxCell>
        <mxCell id="1v1phzoy_iiigH24OFzI-166" value="INT" style="shape=partialRectangle;html=1;whiteSpace=wrap;connectable=0;strokeColor=inherit;overflow=hidden;fillColor=none;top=0;left=0;bottom=0;right=0;pointerEvents=1;fontSize=16;" parent="1v1phzoy_iiigH24OFzI-58" vertex="1">
          <mxGeometry x="384" width="136" height="40" as="geometry">
            <mxRectangle width="136" height="40" as="alternateBounds" />
          </mxGeometry>
        </mxCell>
        <mxCell id="1v1phzoy_iiigH24OFzI-62" value="" style="shape=tableRow;horizontal=0;startSize=0;swimlaneHead=0;swimlaneBody=0;strokeColor=inherit;top=0;left=0;bottom=0;right=0;collapsible=0;dropTarget=0;fillColor=none;points=[[0,0.5],[1,0.5]];portConstraint=eastwest;fontSize=16;" parent="1v1phzoy_iiigH24OFzI-53" vertex="1">
          <mxGeometry y="110" width="520" height="40" as="geometry" />
        </mxCell>
        <mxCell id="1v1phzoy_iiigH24OFzI-63" value="" style="shape=partialRectangle;html=1;whiteSpace=wrap;connectable=0;strokeColor=inherit;overflow=hidden;fillColor=none;top=0;left=0;bottom=0;right=0;pointerEvents=1;fontSize=16;" parent="1v1phzoy_iiigH24OFzI-62" vertex="1">
          <mxGeometry width="124" height="40" as="geometry">
            <mxRectangle width="124" height="40" as="alternateBounds" />
          </mxGeometry>
        </mxCell>
        <mxCell id="1v1phzoy_iiigH24OFzI-64" value="" style="shape=partialRectangle;html=1;whiteSpace=wrap;connectable=0;strokeColor=inherit;overflow=hidden;fillColor=none;top=0;left=0;bottom=0;right=0;pointerEvents=1;fontSize=16;" parent="1v1phzoy_iiigH24OFzI-62" vertex="1">
          <mxGeometry x="124" width="148" height="40" as="geometry">
            <mxRectangle width="148" height="40" as="alternateBounds" />
          </mxGeometry>
        </mxCell>
        <mxCell id="1v1phzoy_iiigH24OFzI-65" value="" style="shape=partialRectangle;html=1;whiteSpace=wrap;connectable=0;strokeColor=inherit;overflow=hidden;fillColor=none;top=0;left=0;bottom=0;right=0;pointerEvents=1;fontSize=16;" parent="1v1phzoy_iiigH24OFzI-62" vertex="1">
          <mxGeometry x="272" width="112" height="40" as="geometry">
            <mxRectangle width="112" height="40" as="alternateBounds" />
          </mxGeometry>
        </mxCell>
        <mxCell id="1v1phzoy_iiigH24OFzI-167" style="shape=partialRectangle;html=1;whiteSpace=wrap;connectable=0;strokeColor=inherit;overflow=hidden;fillColor=none;top=0;left=0;bottom=0;right=0;pointerEvents=1;fontSize=16;" parent="1v1phzoy_iiigH24OFzI-62" vertex="1">
          <mxGeometry x="384" width="136" height="40" as="geometry">
            <mxRectangle width="136" height="40" as="alternateBounds" />
          </mxGeometry>
        </mxCell>
        <mxCell id="1v1phzoy_iiigH24OFzI-66" value="orders" style="shape=table;startSize=30;container=1;collapsible=0;childLayout=tableLayout;strokeColor=#A50040;fontSize=16;fillColor=#d80073;fontColor=#ffffff;" parent="1" vertex="1">
          <mxGeometry x="970" y="740" width="790" height="150" as="geometry" />
        </mxCell>
        <mxCell id="1v1phzoy_iiigH24OFzI-67" value="" style="shape=tableRow;horizontal=0;startSize=0;swimlaneHead=0;swimlaneBody=0;strokeColor=inherit;top=0;left=0;bottom=0;right=0;collapsible=0;dropTarget=0;fillColor=none;points=[[0,0.5],[1,0.5]];portConstraint=eastwest;fontSize=16;" parent="1v1phzoy_iiigH24OFzI-66" vertex="1">
          <mxGeometry y="30" width="790" height="40" as="geometry" />
        </mxCell>
        <mxCell id="1v1phzoy_iiigH24OFzI-68" value="Order_ID(pk)" style="shape=partialRectangle;html=1;whiteSpace=wrap;connectable=0;strokeColor=inherit;overflow=hidden;fillColor=none;top=0;left=0;bottom=0;right=0;pointerEvents=1;fontSize=16;" parent="1v1phzoy_iiigH24OFzI-67" vertex="1">
          <mxGeometry width="132" height="40" as="geometry">
            <mxRectangle width="132" height="40" as="alternateBounds" />
          </mxGeometry>
        </mxCell>
        <mxCell id="1v1phzoy_iiigH24OFzI-69" value="Date" style="shape=partialRectangle;html=1;whiteSpace=wrap;connectable=0;strokeColor=inherit;overflow=hidden;fillColor=none;top=0;left=0;bottom=0;right=0;pointerEvents=1;fontSize=16;" parent="1v1phzoy_iiigH24OFzI-67" vertex="1">
          <mxGeometry x="132" width="129" height="40" as="geometry">
            <mxRectangle width="129" height="40" as="alternateBounds" />
          </mxGeometry>
        </mxCell>
        <mxCell id="1v1phzoy_iiigH24OFzI-70" value="Customer_ID(fk)" style="shape=partialRectangle;html=1;whiteSpace=wrap;connectable=0;strokeColor=inherit;overflow=hidden;fillColor=none;top=0;left=0;bottom=0;right=0;pointerEvents=1;fontSize=16;" parent="1v1phzoy_iiigH24OFzI-67" vertex="1">
          <mxGeometry x="261" width="132" height="40" as="geometry">
            <mxRectangle width="132" height="40" as="alternateBounds" />
          </mxGeometry>
        </mxCell>
        <mxCell id="MIiSA8-IzTzcgjg1cewq-4" value="Amount" style="shape=partialRectangle;html=1;whiteSpace=wrap;connectable=0;strokeColor=inherit;overflow=hidden;fillColor=none;top=0;left=0;bottom=0;right=0;pointerEvents=1;fontSize=16;" vertex="1" parent="1v1phzoy_iiigH24OFzI-67">
          <mxGeometry x="393" width="133" height="40" as="geometry">
            <mxRectangle width="133" height="40" as="alternateBounds" />
          </mxGeometry>
        </mxCell>
        <mxCell id="MIiSA8-IzTzcgjg1cewq-7" value="Payment_ID(fk)" style="shape=partialRectangle;html=1;whiteSpace=wrap;connectable=0;strokeColor=inherit;overflow=hidden;fillColor=none;top=0;left=0;bottom=0;right=0;pointerEvents=1;fontSize=16;" vertex="1" parent="1v1phzoy_iiigH24OFzI-67">
          <mxGeometry x="526" width="132" height="40" as="geometry">
            <mxRectangle width="132" height="40" as="alternateBounds" />
          </mxGeometry>
        </mxCell>
        <mxCell id="MIiSA8-IzTzcgjg1cewq-10" style="shape=partialRectangle;html=1;whiteSpace=wrap;connectable=0;strokeColor=inherit;overflow=hidden;fillColor=none;top=0;left=0;bottom=0;right=0;pointerEvents=1;fontSize=16;" vertex="1" parent="1v1phzoy_iiigH24OFzI-67">
          <mxGeometry x="658" width="132" height="40" as="geometry">
            <mxRectangle width="132" height="40" as="alternateBounds" />
          </mxGeometry>
        </mxCell>
        <mxCell id="1v1phzoy_iiigH24OFzI-71" value="" style="shape=tableRow;horizontal=0;startSize=0;swimlaneHead=0;swimlaneBody=0;strokeColor=inherit;top=0;left=0;bottom=0;right=0;collapsible=0;dropTarget=0;fillColor=none;points=[[0,0.5],[1,0.5]];portConstraint=eastwest;fontSize=16;" parent="1v1phzoy_iiigH24OFzI-66" vertex="1">
          <mxGeometry y="70" width="790" height="40" as="geometry" />
        </mxCell>
        <mxCell id="1v1phzoy_iiigH24OFzI-72" value="INT" style="shape=partialRectangle;html=1;whiteSpace=wrap;connectable=0;strokeColor=inherit;overflow=hidden;fillColor=none;top=0;left=0;bottom=0;right=0;pointerEvents=1;fontSize=16;" parent="1v1phzoy_iiigH24OFzI-71" vertex="1">
          <mxGeometry width="132" height="40" as="geometry">
            <mxRectangle width="132" height="40" as="alternateBounds" />
          </mxGeometry>
        </mxCell>
        <mxCell id="1v1phzoy_iiigH24OFzI-73" value="DATE" style="shape=partialRectangle;html=1;whiteSpace=wrap;connectable=0;strokeColor=inherit;overflow=hidden;fillColor=none;top=0;left=0;bottom=0;right=0;pointerEvents=1;fontSize=16;" parent="1v1phzoy_iiigH24OFzI-71" vertex="1">
          <mxGeometry x="132" width="129" height="40" as="geometry">
            <mxRectangle width="129" height="40" as="alternateBounds" />
          </mxGeometry>
        </mxCell>
        <mxCell id="1v1phzoy_iiigH24OFzI-74" value="INT" style="shape=partialRectangle;html=1;whiteSpace=wrap;connectable=0;strokeColor=inherit;overflow=hidden;fillColor=none;top=0;left=0;bottom=0;right=0;pointerEvents=1;fontSize=16;" parent="1v1phzoy_iiigH24OFzI-71" vertex="1">
          <mxGeometry x="261" width="132" height="40" as="geometry">
            <mxRectangle width="132" height="40" as="alternateBounds" />
          </mxGeometry>
        </mxCell>
        <mxCell id="MIiSA8-IzTzcgjg1cewq-5" value="DECI" style="shape=partialRectangle;html=1;whiteSpace=wrap;connectable=0;strokeColor=inherit;overflow=hidden;fillColor=none;top=0;left=0;bottom=0;right=0;pointerEvents=1;fontSize=16;" vertex="1" parent="1v1phzoy_iiigH24OFzI-71">
          <mxGeometry x="393" width="133" height="40" as="geometry">
            <mxRectangle width="133" height="40" as="alternateBounds" />
          </mxGeometry>
        </mxCell>
        <mxCell id="MIiSA8-IzTzcgjg1cewq-8" value="INT" style="shape=partialRectangle;html=1;whiteSpace=wrap;connectable=0;strokeColor=inherit;overflow=hidden;fillColor=none;top=0;left=0;bottom=0;right=0;pointerEvents=1;fontSize=16;" vertex="1" parent="1v1phzoy_iiigH24OFzI-71">
          <mxGeometry x="526" width="132" height="40" as="geometry">
            <mxRectangle width="132" height="40" as="alternateBounds" />
          </mxGeometry>
        </mxCell>
        <mxCell id="MIiSA8-IzTzcgjg1cewq-11" style="shape=partialRectangle;html=1;whiteSpace=wrap;connectable=0;strokeColor=inherit;overflow=hidden;fillColor=none;top=0;left=0;bottom=0;right=0;pointerEvents=1;fontSize=16;" vertex="1" parent="1v1phzoy_iiigH24OFzI-71">
          <mxGeometry x="658" width="132" height="40" as="geometry">
            <mxRectangle width="132" height="40" as="alternateBounds" />
          </mxGeometry>
        </mxCell>
        <mxCell id="1v1phzoy_iiigH24OFzI-75" value="" style="shape=tableRow;horizontal=0;startSize=0;swimlaneHead=0;swimlaneBody=0;strokeColor=inherit;top=0;left=0;bottom=0;right=0;collapsible=0;dropTarget=0;fillColor=none;points=[[0,0.5],[1,0.5]];portConstraint=eastwest;fontSize=16;" parent="1v1phzoy_iiigH24OFzI-66" vertex="1">
          <mxGeometry y="110" width="790" height="40" as="geometry" />
        </mxCell>
        <mxCell id="1v1phzoy_iiigH24OFzI-76" value="" style="shape=partialRectangle;html=1;whiteSpace=wrap;connectable=0;strokeColor=inherit;overflow=hidden;fillColor=none;top=0;left=0;bottom=0;right=0;pointerEvents=1;fontSize=16;" parent="1v1phzoy_iiigH24OFzI-75" vertex="1">
          <mxGeometry width="132" height="40" as="geometry">
            <mxRectangle width="132" height="40" as="alternateBounds" />
          </mxGeometry>
        </mxCell>
        <mxCell id="1v1phzoy_iiigH24OFzI-77" value="" style="shape=partialRectangle;html=1;whiteSpace=wrap;connectable=0;strokeColor=inherit;overflow=hidden;fillColor=none;top=0;left=0;bottom=0;right=0;pointerEvents=1;fontSize=16;" parent="1v1phzoy_iiigH24OFzI-75" vertex="1">
          <mxGeometry x="132" width="129" height="40" as="geometry">
            <mxRectangle width="129" height="40" as="alternateBounds" />
          </mxGeometry>
        </mxCell>
        <mxCell id="1v1phzoy_iiigH24OFzI-78" value="" style="shape=partialRectangle;html=1;whiteSpace=wrap;connectable=0;strokeColor=inherit;overflow=hidden;fillColor=none;top=0;left=0;bottom=0;right=0;pointerEvents=1;fontSize=16;" parent="1v1phzoy_iiigH24OFzI-75" vertex="1">
          <mxGeometry x="261" width="132" height="40" as="geometry">
            <mxRectangle width="132" height="40" as="alternateBounds" />
          </mxGeometry>
        </mxCell>
        <mxCell id="MIiSA8-IzTzcgjg1cewq-6" style="shape=partialRectangle;html=1;whiteSpace=wrap;connectable=0;strokeColor=inherit;overflow=hidden;fillColor=none;top=0;left=0;bottom=0;right=0;pointerEvents=1;fontSize=16;" vertex="1" parent="1v1phzoy_iiigH24OFzI-75">
          <mxGeometry x="393" width="133" height="40" as="geometry">
            <mxRectangle width="133" height="40" as="alternateBounds" />
          </mxGeometry>
        </mxCell>
        <mxCell id="MIiSA8-IzTzcgjg1cewq-9" style="shape=partialRectangle;html=1;whiteSpace=wrap;connectable=0;strokeColor=inherit;overflow=hidden;fillColor=none;top=0;left=0;bottom=0;right=0;pointerEvents=1;fontSize=16;" vertex="1" parent="1v1phzoy_iiigH24OFzI-75">
          <mxGeometry x="526" width="132" height="40" as="geometry">
            <mxRectangle width="132" height="40" as="alternateBounds" />
          </mxGeometry>
        </mxCell>
        <mxCell id="MIiSA8-IzTzcgjg1cewq-12" style="shape=partialRectangle;html=1;whiteSpace=wrap;connectable=0;strokeColor=inherit;overflow=hidden;fillColor=none;top=0;left=0;bottom=0;right=0;pointerEvents=1;fontSize=16;" vertex="1" parent="1v1phzoy_iiigH24OFzI-75">
          <mxGeometry x="658" width="132" height="40" as="geometry">
            <mxRectangle width="132" height="40" as="alternateBounds" />
          </mxGeometry>
        </mxCell>
        <mxCell id="1v1phzoy_iiigH24OFzI-79" value="" style="edgeStyle=entityRelationEdgeStyle;fontSize=12;html=1;endArrow=ERzeroToMany;startArrow=ERmandOne;rounded=0;entryX=-0.015;entryY=0.087;entryDx=0;entryDy=0;entryPerimeter=0;exitX=1;exitY=0.113;exitDx=0;exitDy=0;exitPerimeter=0;" parent="1" source="1v1phzoy_iiigH24OFzI-1" target="1v1phzoy_iiigH24OFzI-66" edge="1">
          <mxGeometry width="100" height="100" relative="1" as="geometry">
            <mxPoint x="370" y="710" as="sourcePoint" />
            <mxPoint x="470" y="610" as="targetPoint" />
            <Array as="points">
              <mxPoint x="400" y="640" />
              <mxPoint x="390" y="630" />
            </Array>
          </mxGeometry>
        </mxCell>
        <mxCell id="1v1phzoy_iiigH24OFzI-80" value="payments" style="shape=table;startSize=30;container=1;collapsible=0;childLayout=tableLayout;strokeColor=#3700CC;fontSize=16;fillColor=#6a00ff;fontColor=#ffffff;" parent="1" vertex="1">
          <mxGeometry x="10" y="600" width="620" height="150" as="geometry" />
        </mxCell>
        <mxCell id="1v1phzoy_iiigH24OFzI-81" value="" style="shape=tableRow;horizontal=0;startSize=0;swimlaneHead=0;swimlaneBody=0;strokeColor=inherit;top=0;left=0;bottom=0;right=0;collapsible=0;dropTarget=0;fillColor=none;points=[[0,0.5],[1,0.5]];portConstraint=eastwest;fontSize=16;" parent="1v1phzoy_iiigH24OFzI-80" vertex="1">
          <mxGeometry y="30" width="620" height="40" as="geometry" />
        </mxCell>
        <mxCell id="1v1phzoy_iiigH24OFzI-82" value="Payment_ID(pk)" style="shape=partialRectangle;html=1;whiteSpace=wrap;connectable=0;strokeColor=inherit;overflow=hidden;fillColor=none;top=0;left=0;bottom=0;right=0;pointerEvents=1;fontSize=16;" parent="1v1phzoy_iiigH24OFzI-81" vertex="1">
          <mxGeometry width="123" height="40" as="geometry">
            <mxRectangle width="123" height="40" as="alternateBounds" />
          </mxGeometry>
        </mxCell>
        <mxCell id="1v1phzoy_iiigH24OFzI-83" value="Order_ID(fk)" style="shape=partialRectangle;html=1;whiteSpace=wrap;connectable=0;strokeColor=inherit;overflow=hidden;fillColor=none;top=0;left=0;bottom=0;right=0;pointerEvents=1;fontSize=16;" parent="1v1phzoy_iiigH24OFzI-81" vertex="1">
          <mxGeometry x="123" width="113" height="40" as="geometry">
            <mxRectangle width="113" height="40" as="alternateBounds" />
          </mxGeometry>
        </mxCell>
        <mxCell id="1v1phzoy_iiigH24OFzI-84" value="Payment_Method" style="shape=partialRectangle;html=1;whiteSpace=wrap;connectable=0;strokeColor=inherit;overflow=hidden;fillColor=none;top=0;left=0;bottom=0;right=0;pointerEvents=1;fontSize=16;" parent="1v1phzoy_iiigH24OFzI-81" vertex="1">
          <mxGeometry x="236" width="161" height="40" as="geometry">
            <mxRectangle width="161" height="40" as="alternateBounds" />
          </mxGeometry>
        </mxCell>
        <mxCell id="MIiSA8-IzTzcgjg1cewq-22" value="Date" style="shape=partialRectangle;html=1;whiteSpace=wrap;connectable=0;strokeColor=inherit;overflow=hidden;fillColor=none;top=0;left=0;bottom=0;right=0;pointerEvents=1;fontSize=16;" vertex="1" parent="1v1phzoy_iiigH24OFzI-81">
          <mxGeometry x="397" width="103" height="40" as="geometry">
            <mxRectangle width="103" height="40" as="alternateBounds" />
          </mxGeometry>
        </mxCell>
        <mxCell id="MIiSA8-IzTzcgjg1cewq-25" value="Amount" style="shape=partialRectangle;html=1;whiteSpace=wrap;connectable=0;strokeColor=inherit;overflow=hidden;fillColor=none;top=0;left=0;bottom=0;right=0;pointerEvents=1;fontSize=16;" vertex="1" parent="1v1phzoy_iiigH24OFzI-81">
          <mxGeometry x="500" width="120" height="40" as="geometry">
            <mxRectangle width="120" height="40" as="alternateBounds" />
          </mxGeometry>
        </mxCell>
        <mxCell id="1v1phzoy_iiigH24OFzI-85" value="" style="shape=tableRow;horizontal=0;startSize=0;swimlaneHead=0;swimlaneBody=0;strokeColor=inherit;top=0;left=0;bottom=0;right=0;collapsible=0;dropTarget=0;fillColor=none;points=[[0,0.5],[1,0.5]];portConstraint=eastwest;fontSize=16;" parent="1v1phzoy_iiigH24OFzI-80" vertex="1">
          <mxGeometry y="70" width="620" height="40" as="geometry" />
        </mxCell>
        <mxCell id="1v1phzoy_iiigH24OFzI-86" value="INT" style="shape=partialRectangle;html=1;whiteSpace=wrap;connectable=0;strokeColor=inherit;overflow=hidden;fillColor=none;top=0;left=0;bottom=0;right=0;pointerEvents=1;fontSize=16;" parent="1v1phzoy_iiigH24OFzI-85" vertex="1">
          <mxGeometry width="123" height="40" as="geometry">
            <mxRectangle width="123" height="40" as="alternateBounds" />
          </mxGeometry>
        </mxCell>
        <mxCell id="1v1phzoy_iiigH24OFzI-87" value="INT" style="shape=partialRectangle;html=1;whiteSpace=wrap;connectable=0;strokeColor=inherit;overflow=hidden;fillColor=none;top=0;left=0;bottom=0;right=0;pointerEvents=1;fontSize=16;" parent="1v1phzoy_iiigH24OFzI-85" vertex="1">
          <mxGeometry x="123" width="113" height="40" as="geometry">
            <mxRectangle width="113" height="40" as="alternateBounds" />
          </mxGeometry>
        </mxCell>
        <mxCell id="1v1phzoy_iiigH24OFzI-88" value="VARCHAR" style="shape=partialRectangle;html=1;whiteSpace=wrap;connectable=0;strokeColor=inherit;overflow=hidden;fillColor=none;top=0;left=0;bottom=0;right=0;pointerEvents=1;fontSize=16;" parent="1v1phzoy_iiigH24OFzI-85" vertex="1">
          <mxGeometry x="236" width="161" height="40" as="geometry">
            <mxRectangle width="161" height="40" as="alternateBounds" />
          </mxGeometry>
        </mxCell>
        <mxCell id="MIiSA8-IzTzcgjg1cewq-23" value="DATE" style="shape=partialRectangle;html=1;whiteSpace=wrap;connectable=0;strokeColor=inherit;overflow=hidden;fillColor=none;top=0;left=0;bottom=0;right=0;pointerEvents=1;fontSize=16;" vertex="1" parent="1v1phzoy_iiigH24OFzI-85">
          <mxGeometry x="397" width="103" height="40" as="geometry">
            <mxRectangle width="103" height="40" as="alternateBounds" />
          </mxGeometry>
        </mxCell>
        <mxCell id="MIiSA8-IzTzcgjg1cewq-26" value="DECI" style="shape=partialRectangle;html=1;whiteSpace=wrap;connectable=0;strokeColor=inherit;overflow=hidden;fillColor=none;top=0;left=0;bottom=0;right=0;pointerEvents=1;fontSize=16;" vertex="1" parent="1v1phzoy_iiigH24OFzI-85">
          <mxGeometry x="500" width="120" height="40" as="geometry">
            <mxRectangle width="120" height="40" as="alternateBounds" />
          </mxGeometry>
        </mxCell>
        <mxCell id="1v1phzoy_iiigH24OFzI-89" value="" style="shape=tableRow;horizontal=0;startSize=0;swimlaneHead=0;swimlaneBody=0;strokeColor=inherit;top=0;left=0;bottom=0;right=0;collapsible=0;dropTarget=0;fillColor=none;points=[[0,0.5],[1,0.5]];portConstraint=eastwest;fontSize=16;" parent="1v1phzoy_iiigH24OFzI-80" vertex="1">
          <mxGeometry y="110" width="620" height="40" as="geometry" />
        </mxCell>
        <mxCell id="1v1phzoy_iiigH24OFzI-90" value="" style="shape=partialRectangle;html=1;whiteSpace=wrap;connectable=0;strokeColor=inherit;overflow=hidden;fillColor=none;top=0;left=0;bottom=0;right=0;pointerEvents=1;fontSize=16;" parent="1v1phzoy_iiigH24OFzI-89" vertex="1">
          <mxGeometry width="123" height="40" as="geometry">
            <mxRectangle width="123" height="40" as="alternateBounds" />
          </mxGeometry>
        </mxCell>
        <mxCell id="1v1phzoy_iiigH24OFzI-91" value="" style="shape=partialRectangle;html=1;whiteSpace=wrap;connectable=0;strokeColor=inherit;overflow=hidden;fillColor=none;top=0;left=0;bottom=0;right=0;pointerEvents=1;fontSize=16;" parent="1v1phzoy_iiigH24OFzI-89" vertex="1">
          <mxGeometry x="123" width="113" height="40" as="geometry">
            <mxRectangle width="113" height="40" as="alternateBounds" />
          </mxGeometry>
        </mxCell>
        <mxCell id="1v1phzoy_iiigH24OFzI-92" value="" style="shape=partialRectangle;html=1;whiteSpace=wrap;connectable=0;strokeColor=inherit;overflow=hidden;fillColor=none;top=0;left=0;bottom=0;right=0;pointerEvents=1;fontSize=16;" parent="1v1phzoy_iiigH24OFzI-89" vertex="1">
          <mxGeometry x="236" width="161" height="40" as="geometry">
            <mxRectangle width="161" height="40" as="alternateBounds" />
          </mxGeometry>
        </mxCell>
        <mxCell id="MIiSA8-IzTzcgjg1cewq-24" style="shape=partialRectangle;html=1;whiteSpace=wrap;connectable=0;strokeColor=inherit;overflow=hidden;fillColor=none;top=0;left=0;bottom=0;right=0;pointerEvents=1;fontSize=16;" vertex="1" parent="1v1phzoy_iiigH24OFzI-89">
          <mxGeometry x="397" width="103" height="40" as="geometry">
            <mxRectangle width="103" height="40" as="alternateBounds" />
          </mxGeometry>
        </mxCell>
        <mxCell id="MIiSA8-IzTzcgjg1cewq-27" style="shape=partialRectangle;html=1;whiteSpace=wrap;connectable=0;strokeColor=inherit;overflow=hidden;fillColor=none;top=0;left=0;bottom=0;right=0;pointerEvents=1;fontSize=16;" vertex="1" parent="1v1phzoy_iiigH24OFzI-89">
          <mxGeometry x="500" width="120" height="40" as="geometry">
            <mxRectangle width="120" height="40" as="alternateBounds" />
          </mxGeometry>
        </mxCell>
        <mxCell id="1v1phzoy_iiigH24OFzI-95" value="" style="edgeStyle=entityRelationEdgeStyle;fontSize=12;html=1;endArrow=ERoneToMany;startArrow=ERmandOne;rounded=0;entryX=1;entryY=0.08;entryDx=0;entryDy=0;entryPerimeter=0;exitX=-0.015;exitY=0.08;exitDx=0;exitDy=0;exitPerimeter=0;" parent="1" source="1v1phzoy_iiigH24OFzI-40" target="1v1phzoy_iiigH24OFzI-80" edge="1">
          <mxGeometry width="100" height="100" relative="1" as="geometry">
            <mxPoint x="500" y="460" as="sourcePoint" />
            <mxPoint x="480" y="710" as="targetPoint" />
          </mxGeometry>
        </mxCell>
        <mxCell id="1v1phzoy_iiigH24OFzI-96" value="" style="edgeStyle=entityRelationEdgeStyle;fontSize=12;html=1;endArrow=ERmandOne;startArrow=ERmandOne;rounded=0;exitX=1;exitY=0.5;exitDx=0;exitDy=0;entryX=0;entryY=0.5;entryDx=0;entryDy=0;" parent="1" source="1v1phzoy_iiigH24OFzI-81" target="1v1phzoy_iiigH24OFzI-67" edge="1">
          <mxGeometry width="100" height="100" relative="1" as="geometry">
            <mxPoint x="380" y="810" as="sourcePoint" />
            <mxPoint x="480" y="710" as="targetPoint" />
          </mxGeometry>
        </mxCell>
        <mxCell id="1v1phzoy_iiigH24OFzI-97" value="" style="edgeStyle=entityRelationEdgeStyle;fontSize=12;html=1;endArrow=ERmany;startArrow=ERmany;rounded=0;exitX=1.017;exitY=0.067;exitDx=0;exitDy=0;exitPerimeter=0;entryX=0;entryY=0.5;entryDx=0;entryDy=0;" parent="1" source="1v1phzoy_iiigH24OFzI-53" target="1v1phzoy_iiigH24OFzI-71" edge="1">
          <mxGeometry width="100" height="100" relative="1" as="geometry">
            <mxPoint x="380" y="910" as="sourcePoint" />
            <mxPoint x="480" y="810" as="targetPoint" />
          </mxGeometry>
        </mxCell>
      </root>
    </mxGraphModel>
  </diagram>
</mxfile>
